D:\school\WTK\thesis\model\3dpredictsim\Results\Batchsim_tmt_linear_v2\Pog_s1_tmt_bCst_d05_k800_ig24_pas_GRF.mot
nRows=25
nColumns=19

name D:\school\WTK\thesis\model\3dpredictsim\Results\Batchsim_tmt_linear_v2\Pog_s1_tmt_bCst_d05_k800_ig24_pas_GRF.mot
datacolumns 19
datarows 25
range 0.0000000000 0.2597924792
endheader
time 	ground_force_vx	ground_force_vy	ground_force_vz	ground_force_px	ground_force_py	ground_force_pz	1_ground_force_vx	1_ground_force_vy	1_ground_force_vz	1_ground_force_px	1_ground_force_py	1_ground_force_pz	ground_torque_x	ground_torque_y	ground_torque_z	1_ground_torque_x	1_ground_torque_y	1_ground_torque_z
        0.0000000000	      -79.8673324799	       61.0537780555	       17.1675119377	        0.1591991876	        0.0000000000	        0.0456826784	      110.4689700260	      462.2672786764	        2.5704318799	       -0.3515889578	        0.0000000000	       -0.0468498202	        0.0000000000	        0.0000000000	        0.0000000000	        0.0000000000	        0.0000000000	        0.0000000000	
        0.0108246866	     -140.7097924666	      141.5144816553	       44.1197907510	        0.1673688973	        0.0000000000	        0.0441409909	       76.5959143603	      361.6548470549	       -3.5607316547	       -0.3369123839	        0.0000000000	       -0.0445002390	        0.0000000000	        0.0000000000	        0.0000000000	        0.0000000000	        0.0000000000	        0.0000000000	
        0.0216493733	      -63.3377768059	      295.8751224184	       18.2402791715	        0.1740334814	        0.0000000000	        0.0427133300	       39.4614673315	      256.7649723498	       -7.1283121463	       -0.3132413663	        0.0000000000	       -0.0401688838	        0.0000000000	        0.0000000000	        0.0000000000	        0.0000000000	        0.0000000000	        0.0000000000	
        0.0324740599	      -62.5328215153	      485.2000791385	       -0.3665376829	        0.1790700583	        0.0000000000	        0.0433541492	       12.1850460989	      173.6020131488	       -8.2789252971	       -0.2820365713	        0.0000000000	       -0.0327911103	        0.0000000000	        0.0000000000	        0.0000000000	        0.0000000000	        0.0000000000	        0.0000000000	
        0.0432987465	     -102.6439090867	      729.2866475775	      -11.9293282064	        0.1890786625	        0.0000000000	        0.0462672484	       -0.2146949172	      140.2259006106	      -11.2249752084	       -0.2727028749	        0.0000000000	       -0.0298052848	        0.0000000000	        0.0000000000	        0.0000000000	        0.0000000000	        0.0000000000	        0.0000000000	
        0.0541234332	     -129.6422533599	      893.5953104887	      -18.0093721307	        0.1961139789	        0.0000000000	        0.0482399061	       -0.8774598120	      106.6980451004	      -12.2850136720	       -0.2721548589	        0.0000000000	       -0.0299811427	        0.0000000000	        0.0000000000	        0.0000000000	        0.0000000000	        0.0000000000	        0.0000000000	
        0.0649481198	     -133.5766258796	      939.5933215639	      -19.5053893798	        0.2009423942	        0.0000000000	        0.0494703264	       -3.8641308155	       68.8728904797	      -11.7889000455	       -0.2716836963	        0.0000000000	       -0.0301333436	        0.0000000000	        0.0000000000	        0.0000000000	        0.0000000000	        0.0000000000	        0.0000000000	
        0.0757728064	     -124.5720585781	      910.9754397694	      -19.0480253540	        0.2047492160	        0.0000000000	        0.0503168508	       -8.4922293167	       28.5096041800	       -6.2765535631	       -0.2720402331	        0.0000000000	       -0.0299481258	        0.0000000000	        0.0000000000	        0.0000000000	        0.0000000000	        0.0000000000	        0.0000000000	
        0.0865974931	     -110.7605537204	      863.0948498445	      -17.7998154212	        0.2084498404	        0.0000000000	        0.0509508557	        0.1480106908	       -0.1477588111	        0.0108708579	        0.0000000000	        0.0000000000	        0.0000000000	        0.0000000000	        0.0000000000	        0.0000000000	        0.0000000000	        0.0000000000	        0.0000000000	
        0.0974221797	      -98.0232479469	      821.7784708899	      -17.4990558470	        0.2128497682	        0.0000000000	        0.0516714291	        0.0003996515	       -0.0003284630	       -0.0000053298	        0.0000000000	        0.0000000000	        0.0000000000	        0.0000000000	        0.0000000000	        0.0000000000	        0.0000000000	        0.0000000000	        0.0000000000	
        0.1082468663	      -90.5777653582	      794.0425476049	      -17.8173351247	        0.2187433383	        0.0000000000	        0.0520740853	        0.0001782984	       -0.0001276881	       -0.0000056934	        0.0000000000	        0.0000000000	        0.0000000000	        0.0000000000	        0.0000000000	        0.0000000000	        0.0000000000	        0.0000000000	        0.0000000000	
        0.1190715530	      -81.9584277456	      760.1833142626	      -17.4765483734	        0.2248104765	        0.0000000000	        0.0521933559	        0.0013805083	       -0.0008862798	       -0.0000551722	        0.0000000000	        0.0000000000	        0.0000000000	        0.0000000000	        0.0000000000	        0.0000000000	        0.0000000000	        0.0000000000	        0.0000000000	
        0.1298962396	      -73.6258317263	      722.2392173586	      -17.0791696600	        0.2307101278	        0.0000000000	        0.0522130324	        0.0074826846	       -0.0044031737	       -0.0003295960	        0.0000000000	        0.0000000000	        0.0000000000	        0.0000000000	        0.0000000000	        0.0000000000	        0.0000000000	        0.0000000000	        0.0000000000	
        0.1407209262	      -65.7025703514	      688.8768651057	      -16.7878387064	        0.2365233958	        0.0000000000	        0.0521300299	       -0.0569263073	        0.0312099348	        0.0026455540	        0.0000000000	        0.0000000000	        0.0000000000	        0.0000000000	        0.0000000000	        0.0000000000	        0.0000000000	        0.0000000000	        0.0000000000	
        0.1515456128	      -58.2038039679	      662.3142075134	      -16.8390032988	        0.2421224964	        0.0000000000	        0.0520385020	       -0.0399733434	        0.0206379619	        0.0019308805	        0.0000000000	        0.0000000000	        0.0000000000	        0.0000000000	        0.0000000000	        0.0000000000	        0.0000000000	        0.0000000000	        0.0000000000	
        0.1623702995	      -51.3491013510	      641.6979189651	      -17.1859972486	        0.2474174317	        0.0000000000	        0.0519364320	       -0.0278789096	        0.0136681836	        0.0013828626	        0.0000000000	        0.0000000000	        0.0000000000	        0.0000000000	        0.0000000000	        0.0000000000	        0.0000000000	        0.0000000000	        0.0000000000	
        0.1731949861	      -44.9862694698	      626.0092317278	      -17.4694473932	        0.2524179418	        0.0000000000	        0.0518181495	       -0.0241346849	        0.0113066013	        0.0012198314	        0.0000000000	        0.0000000000	        0.0000000000	        0.0000000000	        0.0000000000	        0.0000000000	        0.0000000000	        0.0000000000	        0.0000000000	
        0.1840196727	      -40.3727055893	      614.8790561408	      -18.0381665735	        0.2571071722	        0.0000000000	        0.0516716997	       -0.0269136700	        0.0121116657	        0.0013793326	        0.0000000000	        0.0000000000	        0.0000000000	        0.0000000000	        0.0000000000	        0.0000000000	        0.0000000000	        0.0000000000	        0.0000000000	
        0.1948443594	      -36.4812058188	      607.3198883745	      -18.8281680465	        0.2614833457	        0.0000000000	        0.0514968635	       -0.0374726174	        0.0162808187	        0.0019512532	        0.0000000000	        0.0000000000	        0.0000000000	        0.0000000000	        0.0000000000	        0.0000000000	        0.0000000000	        0.0000000000	        0.0000000000	
        0.2056690460	      -32.7851520897	      601.5161812874	      -19.8167789470	        0.2655689958	        0.0000000000	        0.0512999133	       -0.0614739986	        0.0259061813	        0.0032632840	        0.0000000000	        0.0000000000	        0.0000000000	        0.0000000000	        0.0000000000	        0.0000000000	        0.0000000000	        0.0000000000	        0.0000000000	
        0.2164937326	      -29.2442649384	      596.0925309989	      -20.3468365882	        0.2693406846	        0.0000000000	        0.0511046901	       -0.1111378953	        0.0456137376	        0.0060102345	        0.0000000000	        0.0000000000	        0.0000000000	        0.0000000000	        0.0000000000	        0.0000000000	        0.0000000000	        0.0000000000	        0.0000000000	
        0.2273184193	      -25.7971924197	      590.5014325160	      -20.5405139092	        0.2728091858	        0.0000000000	        0.0509190529	       -0.2071827206	        0.0831252312	        0.0113377062	        0.0000000000	        0.0000000000	        0.0000000000	        0.0000000000	        0.0000000000	        0.0000000000	        0.0000000000	        0.0000000000	        0.0000000000	
        0.2381431059	      -22.3738608413	      584.0626518724	      -20.6198822791	        0.2759762539	        0.0000000000	        0.0507394263	       -0.3758118592	        0.1479322391	        0.0207063212	        0.0000000000	        0.0000000000	        0.0000000000	        0.0000000000	        0.0000000000	        0.0000000000	        0.0000000000	        0.0000000000	        0.0000000000	
        0.2489677925	      -18.7506089521	      576.7262187818	      -20.4917527087	        0.2788758027	        0.0000000000	        0.0505708944	       -0.6406659853	        0.2481161432	        0.0353842412	        0.0000000000	        0.0000000000	        0.0000000000	        0.0000000000	        0.0000000000	        0.0000000000	        0.0000000000	        0.0000000000	        0.0000000000	
        0.2597924792	      -14.9754830110	      568.7234298595	      -20.2691779573	        0.2815146436	        0.0000000000	        0.0504066992	       -1.0147689314	        0.3874076741	        0.0560188980	        0.0000000000	        0.0000000000	        0.0000000000	        0.0000000000	        0.0000000000	        0.0000000000	        0.0000000000	        0.0000000000	        0.0000000000	
